<svg width="76" height="75" viewBox="0 0 76 75" fill="none" xmlns="http://www.w3.org/2000/svg">
<rect x="1.4873" y="0.75" width="73.5" height="73.5" rx="3.25" fill="white"/>
<g clip-path="url(#clip0_57_718)">
<path d="M26.1553 50.2266V34.8055" stroke="#356AFF" stroke-width="1.81372" stroke-miterlimit="22.9256" stroke-linecap="round" stroke-linejoin="round"/>
<path d="M54.3164 27.4301V50.2264" stroke="#356AFF" stroke-width="1.81372" stroke-miterlimit="22.9256" stroke-linecap="round" stroke-linejoin="round"/>
<path d="M35.543 40.8397V50.2265" stroke="#356AFF" stroke-width="1.81372" stroke-miterlimit="22.9256" stroke-linecap="round" stroke-linejoin="round"/>
<path d="M44.9287 31.453V50.2265" stroke="#356AFF" stroke-width="1.81372" stroke-miterlimit="22.9256" stroke-linecap="round" stroke-linejoin="round"/>
<path d="M59.0929 50.2265H18.6963V21.3958" stroke="#356AFF" stroke-width="1.81372" stroke-miterlimit="10" stroke-linecap="round" stroke-linejoin="round"/>
<path d="M25.4873 54.9198H26.8283" stroke="#356AFF" stroke-width="1.81372" stroke-miterlimit="10" stroke-linecap="round" stroke-linejoin="round"/>
<path d="M34.8721 54.9198H36.2131" stroke="#356AFF" stroke-width="1.81372" stroke-miterlimit="10" stroke-linecap="round" stroke-linejoin="round"/>
<path d="M44.2607 54.9197H45.6017" stroke="#356AFF" stroke-width="1.81372" stroke-miterlimit="10" stroke-linecap="round" stroke-linejoin="round"/>
<path d="M53.6455 54.9199H54.9865" stroke="#356AFF" stroke-width="1.81372" stroke-miterlimit="10" stroke-linecap="round" stroke-linejoin="round"/>
<path d="M47.3965 27.7145L51.8524 25.8048" stroke="#356AFF" stroke-width="1.81372" stroke-miterlimit="10" stroke-linejoin="round"/>
<path d="M37.4395 36.2614L43.0334 30.6675" stroke="#356AFF" stroke-width="1.81372" stroke-miterlimit="10" stroke-linejoin="round"/>
<path d="M28.4121 33.5735L33.2877 36.7078" stroke="#356AFF" stroke-width="1.81372" stroke-miterlimit="10" stroke-linejoin="round"/>
<path d="M26.1565 34.8054C27.6377 34.8054 28.8385 33.6046 28.8385 32.1234C28.8385 30.6423 27.6377 29.4415 26.1565 29.4415C24.6753 29.4415 23.4746 30.6423 23.4746 32.1234C23.4746 33.6046 24.6753 34.8054 26.1565 34.8054Z" stroke="#1E1F21" stroke-width="1.81372" stroke-miterlimit="10" stroke-linecap="round" stroke-linejoin="round"/>
<path d="M35.5442 40.8395C37.0254 40.8395 38.2262 39.6388 38.2262 38.1576C38.2262 36.6764 37.0254 35.4757 35.5442 35.4757C34.063 35.4757 32.8623 36.6764 32.8623 38.1576C32.8623 39.6388 34.063 40.8395 35.5442 40.8395Z" stroke="#1E1F21" stroke-width="1.81372" stroke-miterlimit="10" stroke-linecap="round" stroke-linejoin="round"/>
<path d="M44.929 31.453C46.4102 31.453 47.6109 30.2522 47.6109 28.771C47.6109 27.2898 46.4102 26.0891 44.929 26.0891C43.4478 26.0891 42.2471 27.2898 42.2471 28.771C42.2471 30.2522 43.4478 31.453 44.929 31.453Z" stroke="#1E1F21" stroke-width="1.81372" stroke-miterlimit="10" stroke-linecap="round" stroke-linejoin="round"/>
<path d="M54.3177 27.43C55.7988 27.43 56.9996 26.2293 56.9996 24.7481C56.9996 23.2669 55.7988 22.0662 54.3177 22.0662C52.8365 22.0662 51.6357 23.2669 51.6357 24.7481C51.6357 26.2293 52.8365 27.43 54.3177 27.43Z" stroke="#1E1F21" stroke-width="1.81372" stroke-miterlimit="10" stroke-linecap="round" stroke-linejoin="round"/>
</g>
<rect x="1.4873" y="0.75" width="73.5" height="73.5" rx="3.25" stroke="#0D2D72" stroke-width="1.5"/>
<defs>
<clipPath id="clip0_57_718">
<rect width="42.2104" height="42.2103" fill="white" transform="translate(17.79 17.0527)"/>
</clipPath>
</defs>
</svg>
