<svg width="838" height="154" viewBox="0 0 838 154" fill="none" xmlns="http://www.w3.org/2000/svg">
<path d="M318.43 123.77C316.33 123.77 314.31 123.29 312.39 122.33C310.46 121.37 308.76 119.97 307.27 118.13C307.09 117.87 307.01 117.76 307.01 117.8C307.01 117.84 307.01 117.73 307.01 117.47L251.85 45.89L263.8 47.2V122.58H245.28L245.15 40.89C245.24 37.04 246.2 34.17 248.04 32.29C249.88 30.41 252.24 29.47 255.13 29.47C256.88 29.47 258.55 29.91 260.12 30.78C261.7 31.66 263.23 33.06 264.72 34.98L323.29 110.76L310.42 108.79V30.65H328.94V112.47C328.94 116.06 327.96 118.84 325.99 120.81C324.02 122.78 321.5 123.76 318.44 123.76L318.43 123.77Z" fill="#356AFF"/>
<path d="M374.38 123.77C366.76 123.77 360.26 122.33 354.88 119.44C349.5 116.55 345.42 112.53 342.67 107.36C339.91 102.19 338.62 96.28 338.8 89.63C338.71 82.63 340.07 76.52 342.87 71.31C345.67 66.1 349.72 62.07 355.02 59.23C360.32 56.39 366.69 54.96 374.13 54.96C381.57 54.96 387.79 56.27 393.04 58.9C398.29 61.53 402.23 65.38 404.86 70.46C407.49 75.54 408.8 81.45 408.8 88.19V89.9C408.8 90.43 408.78 90.95 408.73 91.48C408.68 92.01 408.62 92.49 408.53 92.92H347.2L347.86 82.02H395.27L389.23 88.72C389.58 83.99 389.23 80.05 388.18 76.9C387.13 73.75 385.42 71.43 383.06 69.94C380.7 68.45 377.54 67.71 373.6 67.71C369.66 67.71 366.42 68.65 363.88 70.53C361.34 72.41 359.59 74.93 358.63 78.08C357.67 81.23 357.19 84.82 357.19 88.85C357.1 93.49 357.78 97.37 359.23 100.47C360.67 103.58 362.73 105.99 365.4 107.69C368.07 109.4 371.24 110.25 374.92 110.25C379.03 110.25 382.36 109.48 384.9 107.95C387.44 106.42 389.15 104.43 390.02 101.97H408.01C406.52 109.15 402.82 114.58 396.91 118.25C391 121.93 383.49 123.77 374.39 123.77H374.38Z" fill="#356AFF"/>
<path d="M442.27 123.64C440.08 123.64 438.29 123.4 436.89 122.92C435.49 122.44 434.31 121.54 433.34 120.23C432.38 118.92 431.46 116.99 430.58 114.45L412.19 56.01H430.31L447.12 114.98L440.82 113.54L454.21 63.5C455 60.79 456.16 58.77 457.69 57.46C459.22 56.15 461.43 55.49 464.32 55.49C467.21 55.49 469.25 56.13 470.69 57.39C472.13 58.66 473.16 60.7 473.78 63.5L487.7 113.54L481.26 114.85L498.2 56.01H516.06L497.67 114.32C496.97 117.04 496.11 119.05 495.11 120.36C494.1 121.67 492.85 122.55 491.37 122.99C489.88 123.43 488.09 123.65 485.99 123.65C483.63 123.65 481.72 123.41 480.28 122.93C478.84 122.45 477.61 121.55 476.6 120.24C475.59 118.93 474.74 116.87 474.04 114.07L461.83 72.44H465.64L453.69 114.6C452.9 117.14 452.09 119.07 451.26 120.38C450.43 121.69 449.29 122.57 447.84 123.01C446.4 123.45 444.53 123.67 442.26 123.67L442.27 123.64Z" fill="#356AFF"/>
<path d="M571.9 123.9C562.27 123.9 553.8 121.89 546.49 117.86C539.18 113.83 533.57 108.27 529.68 101.18C525.78 94.09 523.84 85.86 523.84 76.49C523.84 67.12 525.81 59.24 529.75 52.06C533.69 44.88 539.23 39.2999 546.36 35.3199C553.5 31.3399 561.84 29.34 571.38 29.34C583.46 29.34 593.49 32.12 601.46 37.68C609.43 43.24 614.86 51.45 617.74 62.31H597.12C595.1 56.88 591.89 52.6999 587.47 49.7699C583.05 46.8399 577.82 45.37 571.78 45.37C566.18 45.37 561.19 46.6 556.81 49.05C552.43 51.5 549.04 55.05 546.63 59.69C544.22 64.33 542.97 69.85 542.89 76.24C542.98 83.07 544.27 88.87 546.76 93.64C549.26 98.41 552.71 101.98 557.13 104.34C561.55 106.7 566.56 107.89 572.17 107.89C577.78 107.89 582.43 106.93 586.68 105C590.93 103.07 594.23 100.21 596.6 96.3999C598.96 92.5899 600.15 88.02 600.15 82.68L604.48 88.8499H572.7L572.83 74.14H620.11C619.93 84.47 617.9 93.36 614 100.8C610.1 108.24 604.54 113.96 597.32 117.94C590.1 121.93 581.63 123.92 571.91 123.92L571.9 123.9Z" fill="#356AFF"/>
<path d="M657.79 123.77C651.49 123.77 646.1 122.33 641.64 119.44C637.18 116.55 633.76 112.48 631.4 107.23C629.04 101.98 627.85 95.98 627.85 89.24C627.94 82.41 629.14 76.39 631.46 71.18C633.78 65.97 637.19 61.97 641.7 59.16C646.21 56.36 651.53 54.96 657.66 54.96C663.79 54.96 668.52 56.25 672.63 58.83C676.74 61.41 679.9 65.27 682.09 70.39C684.28 75.51 685.37 81.75 685.37 89.1C685.37 90.06 685.39 90.96 685.44 91.79C685.48 92.62 685.46 93.48 685.37 94.35C684.93 100.74 683.51 106.08 681.1 110.37C678.69 114.66 675.52 117.97 671.58 120.28C667.64 122.6 663.04 123.76 657.79 123.76V123.77ZM662.52 108.67C667.68 108.67 671.69 106.96 674.54 103.55C677.38 100.14 678.85 95.32 678.94 89.1C678.85 82.97 677.41 78.24 674.61 74.92C671.81 71.59 667.82 69.93 662.66 69.93C657.5 69.93 653.25 71.59 650.45 74.92C647.65 78.25 646.25 82.98 646.25 89.1C646.34 93.39 646.99 96.98 648.22 99.87C649.45 102.76 651.28 104.95 653.74 106.44C656.19 107.93 659.12 108.67 662.54 108.67H662.52ZM681.82 122.59L678.93 107.75L678.8 70.45L681.43 56H697.06V108.27L699.03 122.58H681.83L681.82 122.59Z" fill="#356AFF"/>
<path d="M706.38 71.11V56.01H759.83L759.7 71.11H706.38ZM748.01 122.59C742.05 122.59 737.13 121.69 733.24 119.9C729.34 118.11 726.41 115.13 724.44 110.97C722.47 106.81 721.53 101.27 721.62 94.36L721.49 59.56L727.14 35.53H739.75L739.62 94.89C739.79 97.69 740.17 99.95 740.74 101.65C741.31 103.36 742.38 104.63 743.96 105.46C745.54 106.29 747.72 106.71 750.53 106.71H761.96V122.6H748.04L748.01 122.59Z" fill="#356AFF"/>
<path d="M803.17 123.77C795.55 123.77 789.05 122.33 783.67 119.44C778.29 116.55 774.21 112.53 771.46 107.36C768.7 102.19 767.41 96.28 767.59 89.63C767.5 82.63 768.86 76.52 771.66 71.31C774.46 66.1 778.51 62.07 783.81 59.23C789.11 56.39 795.48 54.96 802.92 54.96C810.36 54.96 816.58 56.27 821.83 58.9C827.08 61.53 831.02 65.38 833.65 70.46C836.28 75.54 837.59 81.45 837.59 88.19V89.9C837.59 90.43 837.57 90.95 837.52 91.48C837.47 92.01 837.41 92.49 837.32 92.92H775.99L776.65 82.02H824.06L818.02 88.72C818.37 83.99 818.02 80.05 816.97 76.9C815.92 73.75 814.21 71.43 811.85 69.94C809.49 68.45 806.33 67.71 802.39 67.71C798.45 67.71 795.21 68.65 792.67 70.53C790.13 72.41 788.38 74.93 787.42 78.08C786.46 81.23 785.98 84.82 785.98 88.85C785.89 93.49 786.57 97.37 788.02 100.47C789.46 103.58 791.52 105.99 794.19 107.69C796.86 109.4 800.03 110.25 803.71 110.25C807.82 110.25 811.15 109.48 813.69 107.95C816.23 106.42 817.94 104.43 818.81 101.97H836.8C835.31 109.15 831.61 114.58 825.7 118.25C819.79 121.93 812.28 123.77 803.18 123.77H803.17Z" fill="#356AFF"/>
<path d="M54.14 0H7.15C3.20117 0 0 3.20116 0 7.14999V146.07C0 150.019 3.20117 153.22 7.15 153.22H54.14C58.0888 153.22 61.29 150.019 61.29 146.07V7.14999C61.29 3.20116 58.0888 0 54.14 0Z" fill="#356AFF"/>
<path d="M183.86 2.57999C183.86 1.14999 182.7 0 181.28 0H122.58C122.58 0 68.5501 0 68.5301 0C66.4201 0.02 65.5901 2.68997 67.3901 3.90997L120.23 39.4C121.69 40.33 122.57 41.94 122.57 43.67V150.63C122.57 152.05 123.72 153.21 125.15 153.21H181.27C182.7 153.21 183.85 152.05 183.85 150.63V2.57999H183.86Z" fill="#356AFF"/>
</svg>
