<svg width="87" height="154" viewBox="0 0 87 154" fill="none" xmlns="http://www.w3.org/2000/svg">
<g clip-path="url(#clip0_33_174)">
<g clip-path="url(#clip1_33_174)">
<path d="M59.6893 1.30602C59.6893 0.582136 59.1021 0 58.3833 0H28.6687C28.6687 0 1.31809 0 1.30796 0C0.239858 0.0101242 -0.180367 1.36169 0.730813 1.97927L27.4791 19.9447C28.2181 20.4155 28.6636 21.2305 28.6636 22.1062V76.2506C28.6636 76.9694 29.2457 77.5566 29.9696 77.5566H58.3782C59.1021 77.5566 59.6843 76.9694 59.6843 76.2506V1.30602H59.6893Z" fill="#356AFF"/>
<path d="M30.0978 78.2501C30.0978 77.5262 29.5105 76.9441 28.7917 76.9441H-0.922852C-0.922852 76.9441 -28.2735 76.9441 -28.2836 76.9441C-29.3517 76.9542 -29.7719 78.3058 -28.8607 78.9234L-2.1125 96.8888C-1.37343 97.3596 -0.927919 98.1746 -0.927919 99.0503V153.195C-0.927919 153.914 -0.345861 154.501 0.378021 154.501H28.7867C29.5105 154.501 30.0927 153.914 30.0927 153.195V78.2501H30.0978Z" fill="#356AFF"/>
<path d="M118.916 78.2501C118.916 77.5262 118.329 76.9441 117.61 76.9441H87.8954C87.8954 76.9441 60.5448 76.9441 60.5346 76.9441C59.4665 76.9542 59.0463 78.3058 59.9575 78.9234L86.7057 96.8888C87.4448 97.3596 87.8903 98.1746 87.8903 99.0503V153.195C87.8903 153.914 88.4724 154.501 89.1963 154.501H117.605C118.329 154.501 118.911 153.914 118.911 153.195V78.2501H118.916Z" fill="#356AFF"/>
</g>
</g>
<defs>
<clipPath id="clip0_33_174">
<rect width="87" height="154" fill="white"/>
</clipPath>
<clipPath id="clip1_33_174">
<rect width="326" height="463.502" fill="white"/>
</clipPath>
</defs>
</svg>
