<svg width="1921" height="927" viewBox="0 0 1921 927" fill="none" xmlns="http://www.w3.org/2000/svg">
<g clip-path="url(#clip0_7_6)">
<rect width="1920" height="926.88" transform="translate(0.5 0.0600586)" fill="#1E1F21"/>
<path d="M2521.79 -5.19873L1800.69 478.183C1796.4 480.912 1793.8 485.641 1793.8 490.729V1226.07" stroke="#4063AC" stroke-width="3.17353" stroke-miterlimit="10"/>
<path d="M2512.43 -14.5605L1791.33 468.821C1787.04 471.55 1784.44 476.279 1784.44 481.367V1216.71" stroke="#4063AC" stroke-width="3.17353" stroke-miterlimit="10"/>
<path d="M2503.06 -23.9224L1781.96 459.459C1777.68 462.188 1775.08 466.917 1775.08 472.005V1207.34" stroke="#4063AC" stroke-width="3.17353" stroke-miterlimit="10"/>
<path d="M2493.7 -33.2847L1772.6 450.097C1768.32 452.826 1765.72 457.555 1765.72 462.643V1197.98" stroke="#4063AC" stroke-width="3.17353" stroke-miterlimit="10"/>
<path d="M2484.34 -42.6465L1763.24 440.735C1758.96 443.464 1756.35 448.193 1756.35 453.281V1188.62" stroke="#4063AC" stroke-width="3.17353" stroke-miterlimit="10"/>
<path d="M2474.98 -52.0083L1753.88 431.373C1749.59 434.102 1746.99 438.831 1746.99 443.919V1179.26" stroke="#4063AC" stroke-width="3.17353" stroke-miterlimit="10"/>
<path d="M2465.62 -61.3701L1744.52 422.011C1740.23 424.741 1737.63 429.469 1737.63 434.557V1169.9" stroke="#4063AC" stroke-width="3.17353" stroke-miterlimit="10"/>
<path d="M2456.25 -70.7319L1735.15 412.649C1730.87 415.379 1728.27 420.107 1728.27 425.195V1160.53" stroke="#4063AC" stroke-width="3.17353" stroke-miterlimit="10"/>
<path d="M2446.89 -80.1045L1725.79 403.277C1721.51 406.006 1718.91 410.735 1718.91 415.823V1151.16" stroke="#4063AC" stroke-width="3.17353" stroke-miterlimit="10"/>
<path d="M2437.53 -89.4663L1716.43 393.915C1712.15 396.644 1709.54 401.373 1709.54 406.461V1141.8" stroke="#4063AC" stroke-width="3.17353" stroke-miterlimit="10"/>
<path d="M2428.17 -98.8286L1707.07 384.553C1702.78 387.282 1700.18 392.011 1700.18 397.099V1132.44" stroke="#4063AC" stroke-width="3.17353" stroke-miterlimit="10"/>
<path d="M2418.81 -108.19L1697.71 375.191C1693.42 377.92 1690.82 382.649 1690.82 387.737V1123.08" stroke="#4063AC" stroke-width="3.17353" stroke-miterlimit="10"/>
<path d="M2409.43 -117.552L1688.33 365.829C1684.05 368.558 1681.45 373.287 1681.45 378.375V1113.71" stroke="#4063AC" stroke-width="3.17353" stroke-miterlimit="10"/>
<path d="M2400.07 -126.914L1678.97 356.467C1674.69 359.197 1672.09 363.925 1672.09 369.013V1104.35" stroke="#4063AC" stroke-width="3.17353" stroke-miterlimit="10"/>
<path d="M2390.71 -136.276L1669.61 347.106C1665.33 349.835 1662.72 354.563 1662.72 359.652V1094.99" stroke="#4063AC" stroke-width="3.17353" stroke-miterlimit="10"/>
<path d="M2381.35 -145.638L1660.25 337.744C1655.96 340.473 1653.36 345.202 1653.36 350.29V1085.63" stroke="#4063AC" stroke-width="3.17353" stroke-miterlimit="10"/>
<path d="M2371.99 -155L1650.89 328.381C1646.6 331.111 1644 335.839 1644 340.927V1076.27" stroke="#4063AC" stroke-width="3.17353" stroke-miterlimit="10"/>
<path d="M149.378 582H0.632977C-11.8669 582 -22 592.133 -22 604.632V1044.37C-22 1056.87 -11.8669 1067 0.632977 1067H149.378C161.877 1067 172.01 1056.87 172.01 1044.37V604.632C172.01 592.133 161.877 582 149.378 582Z" fill="#3A3C3F"/>
<path d="M560 590.167C560 585.64 556.328 582 551.833 582H366.021C366.021 582 194.992 582 194.928 582C188.249 582.063 185.622 590.515 191.32 594.377L358.582 706.716C363.204 709.66 365.989 714.756 365.989 720.232V1058.8C365.989 1063.3 369.63 1066.97 374.156 1066.97H551.801C556.328 1066.97 559.968 1063.3 559.968 1058.8V590.167H560Z" fill="#3A3C3F"/>
</g>
<defs>
<clipPath id="clip0_7_6">
<rect width="1920" height="926.88" fill="white" transform="translate(0.5 0.0600586)"/>
</clipPath>
</defs>
</svg>
