<svg width="431" height="965" viewBox="0 0 431 965" fill="none" xmlns="http://www.w3.org/2000/svg">
<g clip-path="url(#clip0_9_113)">
<g clip-path="url(#clip1_9_113)">
<path d="M-326 370.241L142.824 684.512C145.609 686.286 147.301 689.36 147.301 692.668V1170.75" stroke="#4063AC" stroke-width="2.06327" stroke-miterlimit="10"/>
<path d="M-319.913 364.154L148.911 678.425C151.696 680.199 153.388 683.273 153.388 686.582V1164.66" stroke="#4063AC" stroke-width="2.06327" stroke-miterlimit="10"/>
<path d="M-313.827 358.067L154.997 672.338C157.783 674.113 159.475 677.187 159.475 680.495V1158.58" stroke="#4063AC" stroke-width="2.06327" stroke-miterlimit="10"/>
<path d="M-307.74 351.981L161.084 666.252C163.869 668.026 165.561 671.1 165.561 674.408V1152.49" stroke="#4063AC" stroke-width="2.06327" stroke-miterlimit="10"/>
<path d="M-301.654 345.894L167.17 660.165C169.956 661.939 171.648 665.013 171.648 668.322V1146.4" stroke="#4063AC" stroke-width="2.06327" stroke-miterlimit="10"/>
<path d="M-295.567 339.807L173.257 654.078C176.043 655.853 177.735 658.927 177.735 662.235V1140.32" stroke="#4063AC" stroke-width="2.06327" stroke-miterlimit="10"/>
<path d="M-289.48 333.721L179.344 647.992C182.129 649.766 183.821 652.84 183.821 656.148V1134.23" stroke="#4063AC" stroke-width="2.06327" stroke-miterlimit="10"/>
<path d="M-283.394 327.634L185.43 641.905C188.216 643.679 189.908 646.754 189.908 650.062V1128.14" stroke="#4063AC" stroke-width="2.06327" stroke-miterlimit="10"/>
<path d="M-277.307 321.541L191.517 635.811C194.303 637.586 195.995 640.66 195.995 643.968V1122.05" stroke="#4063AC" stroke-width="2.06327" stroke-miterlimit="10"/>
<path d="M-271.22 315.454L197.604 629.725C200.389 631.499 202.081 634.573 202.081 637.881V1115.96" stroke="#4063AC" stroke-width="2.06327" stroke-miterlimit="10"/>
<path d="M-265.134 309.367L203.69 623.638C206.476 625.413 208.168 628.487 208.168 631.795V1109.88" stroke="#4063AC" stroke-width="2.06327" stroke-miterlimit="10"/>
<path d="M-259.047 303.281L209.777 617.551C212.563 619.326 214.255 622.4 214.255 625.708V1103.79" stroke="#4063AC" stroke-width="2.06327" stroke-miterlimit="10"/>
<path d="M-252.953 297.194L215.871 611.465C218.656 613.239 220.348 616.313 220.348 619.622V1097.7" stroke="#4063AC" stroke-width="2.06327" stroke-miterlimit="10"/>
<path d="M-246.866 291.107L221.957 605.378C224.743 607.152 226.435 610.227 226.435 613.535V1091.62" stroke="#4063AC" stroke-width="2.06327" stroke-miterlimit="10"/>
<path d="M-240.78 285.021L228.044 599.291C230.829 601.066 232.521 604.14 232.521 607.448V1085.53" stroke="#4063AC" stroke-width="2.06327" stroke-miterlimit="10"/>
<path d="M-234.693 278.934L234.131 593.205C236.916 594.979 238.608 598.053 238.608 601.362V1079.44" stroke="#4063AC" stroke-width="2.06327" stroke-miterlimit="10"/>
<path d="M-228.606 272.847L240.217 587.118C243.003 588.892 244.695 591.967 244.695 595.275V1073.36" stroke="#4063AC" stroke-width="2.06327" stroke-miterlimit="10"/>
<path d="M-222.52 266.76L246.304 581.031C249.089 582.806 250.781 585.88 250.781 589.188V1067.27" stroke="#4063AC" stroke-width="2.06327" stroke-miterlimit="10"/>
<path d="M-216.433 260.674L252.391 574.945C255.176 576.719 256.868 579.793 256.868 583.102V1061.18" stroke="#4063AC" stroke-width="2.06327" stroke-miterlimit="10"/>
<path d="M-210.347 254.58L258.477 568.851C261.263 570.626 262.955 573.7 262.955 577.008V1055.09" stroke="#4063AC" stroke-width="2.06327" stroke-miterlimit="10"/>
<path d="M-205.01 245.454L264.564 562.772C267.349 564.546 269.041 567.62 269.041 570.928V1049.01" stroke="#4063AC" stroke-width="2.06327" stroke-miterlimit="10"/>
<path d="M-198.923 239.367L270.65 556.685C273.436 558.459 275.128 561.534 275.128 564.842V1042.92" stroke="#4063AC" stroke-width="2.06327" stroke-miterlimit="10"/>
<path d="M-192.836 233.281L276.737 550.598C279.523 552.373 281.214 555.447 281.214 558.755V1036.84" stroke="#4063AC" stroke-width="2.06327" stroke-miterlimit="10"/>
<path d="M-186.75 227.194L282.824 544.512C285.609 546.286 287.301 549.36 287.301 552.668V1030.75" stroke="#4063AC" stroke-width="2.06327" stroke-miterlimit="10"/>
<path d="M-180.663 221.107L288.91 538.425C291.696 540.199 293.388 543.274 293.388 546.582V1024.66" stroke="#4063AC" stroke-width="2.06327" stroke-miterlimit="10"/>
<path d="M-174.576 215.014L294.997 532.331C297.783 534.106 299.474 537.18 299.474 540.488V1018.57" stroke="#4063AC" stroke-width="2.06327" stroke-miterlimit="10"/>
<path d="M-168.49 208.927L301.084 526.245C303.869 528.019 305.561 531.093 305.561 534.402V1012.48" stroke="#4063AC" stroke-width="2.06327" stroke-miterlimit="10"/>
<path d="M-162.403 202.84L307.17 520.158C309.956 521.932 311.648 525.007 311.648 528.315V1006.4" stroke="#4063AC" stroke-width="2.06327" stroke-miterlimit="10"/>
<path d="M-156.316 196.754L313.257 514.071C316.043 515.846 317.734 518.92 317.734 522.228V1000.31" stroke="#4063AC" stroke-width="2.06327" stroke-miterlimit="10"/>
<path d="M-150.23 190.667L319.344 507.985C322.129 509.759 323.821 512.833 323.821 516.141V1310.76" stroke="#4063AC" stroke-width="2.06327" stroke-miterlimit="10"/>
</g>
</g>
<defs>
<clipPath id="clip0_9_113">
<rect width="431" height="965" fill="white"/>
</clipPath>
<clipPath id="clip1_9_113">
<rect width="905.495" height="1375.76" fill="white" transform="translate(-326 -65)"/>
</clipPath>
</defs>
</svg>
