<svg width="185" height="154" viewBox="0 0 185 154" fill="none" xmlns="http://www.w3.org/2000/svg">
<path d="M54.35 0.390137H7.35996C3.41113 0.390137 0.209961 3.59129 0.209961 7.54013V146.46C0.209961 150.409 3.41113 153.61 7.35996 153.61H54.35C58.2988 153.61 61.5 150.409 61.5 146.46V7.54013C61.5 3.59129 58.2988 0.390137 54.35 0.390137Z" fill="#356AFF"/>
<path d="M184.07 2.97012C184.07 1.54012 182.91 0.390137 181.49 0.390137H122.79C122.79 0.390137 68.76 0.390137 68.74 0.390137C66.63 0.410137 65.8 3.08011 67.6 4.30011L120.44 39.7901C121.9 40.7201 122.78 42.3301 122.78 44.0601V151.02C122.78 152.44 123.93 153.6 125.36 153.6H181.48C182.91 153.6 184.06 152.44 184.06 151.02V2.97012H184.07Z" fill="#356AFF"/>
</svg>
