<svg width="1241" height="1047" viewBox="0 0 1241 1047" fill="none" xmlns="http://www.w3.org/2000/svg">
<path d="M1100.34 31.7136C1099.44 23.1839 1091.8 17.0545 1083.33 17.948L733.197 54.8863C733.197 54.8863 410.92 88.8859 410.801 88.8985C398.228 90.3455 394.957 106.794 406.462 112.938L743.973 291.377C753.267 296.006 759.529 305.055 760.618 315.375L827.925 953.368C828.819 961.838 836.408 968.033 844.938 967.133L1179.68 931.818C1180.97 931.682 1182.21 931.392 1183.37 930.968C1189.9 928.589 1194.21 921.995 1193.45 914.806L1100.28 31.7199L1100.34 31.7136Z" fill="#1137A2"/>
<path d="M1144.07 15.7804L1144.01 15.7867L1100.28 31.7198L1100.34 31.7135L1144.07 15.7804Z" fill="#1137A2"/>
<path d="M1127.05 2.01491C1135.52 1.12135 1143.17 7.25081 1144.07 15.7804L1100.34 31.7136C1099.44 23.1839 1091.8 17.0545 1083.33 17.948L1127.05 2.01491Z" fill="#1137A2"/>
<path d="M1144.01 15.7867L1237.17 898.873L1193.45 914.806L1100.28 31.7198L1144.01 15.7867Z" fill="#1137A2"/>
<path d="M776.92 38.9532L1127.05 2.01492L1083.33 17.948L733.197 54.8863L776.92 38.9532Z" fill="#1137A2"/>
<path d="M1237.17 898.873C1237.93 906.062 1233.63 912.656 1227.09 915.035L1183.37 930.966C1189.91 928.585 1194.2 921.993 1193.45 914.806L1237.17 898.873Z" fill="#1137A2"/>
<path d="M1227.09 915.035C1225.93 915.459 1224.69 915.749 1223.4 915.885L1179.68 931.818C1180.97 931.682 1182.21 931.392 1183.37 930.968L1227.09 915.035Z" fill="#1137A2"/>
<path d="M1223.4 915.885L888.66 951.2L844.937 967.133L1179.68 931.818L1223.4 915.885Z" fill="#1137A2"/>
<path d="M804.341 299.441C803.252 289.122 796.99 280.073 787.696 275.444L743.973 291.377C753.267 296.006 759.529 305.055 760.618 315.375L804.341 299.441Z" fill="#1137A2"/>
<path d="M871.648 937.435L804.341 299.441L760.618 315.375L827.925 953.368L871.648 937.435Z" fill="#1137A2"/>
<path d="M454.523 72.9653L776.92 38.9532L733.197 54.8863L410.8 88.8984L454.523 72.9653Z" fill="#1137A2"/>
<path d="M787.696 275.444L450.184 97.0049L406.461 112.938L743.973 291.378L787.696 275.444Z" fill="#1137A2"/>
<path d="M888.66 951.2C880.13 952.1 872.541 945.905 871.647 937.435L827.924 953.368C828.818 961.838 836.407 968.033 844.937 967.133L888.66 951.2Z" fill="#1137A2"/>
<path d="M448.538 75.1465C450.192 74.0132 452.199 73.2329 454.523 72.9653L448.538 75.1465C441.246 80.1424 440.807 91.9965 450.184 97.0048L406.461 112.938C394.957 106.794 398.227 90.3455 410.8 88.8984L448.538 75.1465Z" fill="#1137A2"/>
<path d="M1144.07 15.7804C1143.17 7.25078 1135.52 1.12133 1127.05 2.01489L776.92 38.9532C776.92 38.9532 454.643 72.9527 454.524 72.9653C441.95 74.4124 438.68 90.8605 450.184 97.0048L787.696 275.444C796.99 280.073 803.252 289.122 804.341 299.441L871.648 937.435C872.541 945.905 880.131 952.1 888.66 951.2L1223.4 915.885C1231.93 914.985 1238.06 907.343 1237.17 898.873L1144.01 15.7867L1144.07 15.7804Z" fill="#356AFF"/>
<path d="M324.967 97.9537L44.6814 127.523C41.1086 127.9 37.6848 128.706 34.4556 129.883C16.3961 136.468 4.42453 154.69 6.53249 174.671L93.951 1003.3C96.4358 1026.85 117.544 1043.93 141.098 1041.45L421.384 1011.88C424.956 1011.5 428.38 1010.7 431.61 1009.52C449.669 1002.93 461.64 984.711 459.532 964.73L372.114 136.103C369.629 112.549 348.521 95.4688 324.967 97.9537Z" fill="#1137A2"/>
<path d="M415.837 120.169C413.352 96.6155 392.243 79.5357 368.689 82.0206L324.966 97.9537C348.52 95.4689 369.629 112.549 372.114 136.103L415.837 120.169Z" fill="#1137A2"/>
<path d="M503.255 948.797L415.837 120.17L372.114 136.103L459.532 964.73L503.255 948.797Z" fill="#1137A2"/>
<path d="M368.689 82.0206L88.4041 111.59L44.6811 127.523L324.966 97.9538L368.689 82.0206Z" fill="#1137A2"/>
<path d="M475.332 993.585C493.392 987 505.363 968.778 503.255 948.797L459.532 964.73C461.64 984.711 449.669 1002.93 431.609 1009.52L475.332 993.585Z" fill="#1137A2"/>
<path d="M465.106 995.945C468.673 995.568 472.092 994.765 475.316 993.59L431.609 1009.52C428.38 1010.7 424.956 1011.5 421.383 1011.88L465.106 995.945Z" fill="#1137A2"/>
<path d="M88.4042 111.59C84.8314 111.967 81.4075 112.772 78.1783 113.95L34.4711 129.877C37.6957 128.703 41.1142 127.9 44.6813 127.523L88.4042 111.59Z" fill="#1137A2"/>
<path d="M78.1781 113.95C60.1186 120.535 48.1471 138.756 50.255 158.738L6.53212 174.671C4.42415 154.69 16.3957 136.468 34.4552 129.883L78.1781 113.95Z" fill="#1137A2"/>
<path d="M184.821 1025.51L465.106 995.945L421.383 1011.88L141.098 1041.45L184.821 1025.51Z" fill="#1137A2"/>
<path d="M50.2546 158.738L137.673 987.365L93.9502 1003.3L6.53172 174.671L50.2546 158.738Z" fill="#1137A2"/>
<path d="M137.674 987.365C140.158 1010.92 161.267 1028 184.821 1025.51L141.098 1041.45C117.544 1043.93 96.4356 1026.85 93.9507 1003.3L137.674 987.365Z" fill="#1137A2"/>
<path d="M368.689 82.0206L88.4041 111.59C64.8501 114.075 47.7703 135.184 50.2551 158.738L137.674 987.365C140.159 1010.92 161.267 1028 184.821 1025.51L465.106 995.944C488.66 993.46 505.74 972.351 503.255 948.797L415.837 120.169C413.352 96.6155 392.243 79.5357 368.689 82.0206Z" fill="#356AFF"/>
</svg>
